<svg width="0" height="0" class="hidden">
  <symbol fill="none" xmlns="http://www.w3.org/2000/svg" viewBox="0 0 140 35" id="webflow">
    <path d="M45.206 13.6262C45.206 11.1409 42.7638 8.50135 38.5377 8.50135C33.7919 8.50135 28.5785 11.9465 27.7817 18.8196C26.9677 25.7612 31.3324 28.8464 35.7318 28.8464C40.1311 28.8464 42.4347 27.1496 44.7903 24.8871C42.7638 22.3676 40.1485 23.5331 39.6462 23.7902C39.0919 24.0644 38.3818 24.4414 36.9269 24.4414C35.2295 24.4414 33.4974 23.6873 33.4974 20.5507C44.3746 19.4881 45.206 16.1115 45.206 13.6262ZM39.8194 14.0376C39.7501 14.8089 39.4383 16.1287 33.9305 16.8656C35.0909 12.7864 37.3079 12.4779 38.3299 12.4779C39.2825 12.4779 39.8887 13.2148 39.8194 14.0376ZM21.3906 14.7061C21.3906 14.7061 19.0523 21.9734 18.8618 22.5732C18.7925 21.9562 17.0778 8.91275 17.0778 8.91275C13.0941 8.91275 10.9638 11.7237 9.83795 14.6888C9.83795 14.6888 6.9974 21.9734 6.75492 22.5904C6.7376 22.0248 6.32191 14.7746 6.32191 14.7746C6.07943 11.1409 2.71929 8.92989 0 8.92989L3.29085 28.6922C7.46502 28.675 9.71666 25.8812 10.8945 22.916C10.8945 22.916 13.4059 16.4886 13.5099 16.1972C13.5272 16.4714 15.3111 28.6922 15.3111 28.6922C19.5027 28.6922 21.7543 26.0697 22.9667 23.2074L28.8383 8.92989C24.6987 8.92989 22.5164 11.7237 21.3906 14.7061ZM60.5864 8.46708C58.0057 8.46708 56.0312 9.85542 54.3684 11.8951V11.8779L55.858 0C52.4285 0 49.64 2.94806 49.1031 7.33585L46.505 28.5379C48.4795 28.5379 50.5753 27.9723 51.7011 26.5326C52.7057 27.818 54.2126 28.8464 56.4469 28.8464C62.2318 28.8464 66.1982 22.1961 66.1982 15.9572C66.1636 10.2668 63.375 8.46708 60.5864 8.46708ZM60.0495 18.6654C59.4433 22.1447 57.4861 24.5101 55.5982 24.5101C53.6929 24.5101 52.8789 23.6702 52.8789 23.6702C53.2426 20.6193 53.4678 18.751 54.1606 17.1399C54.8534 15.5287 56.4988 12.9577 58.2135 12.9577C59.8936 12.9577 60.6557 15.1688 60.0495 18.6654ZM80.6437 8.92989H76.608L76.6249 8.72419C76.902 6.11894 77.5254 4.74775 79.5871 4.52493C80.99 4.38781 81.6134 3.66793 81.7688 2.8795C81.8904 2.26247 82.2714 0.119979 82.2714 0.119979C74.1654 0.0685595 71.6194 3.53081 70.9613 8.80986L70.944 8.92989H70.8574C69.541 8.92989 68.0861 10.4039 67.8436 12.2722L67.757 12.9577H70.459L68.19 31.5031L67.4972 34.8282C67.5838 34.8282 67.6877 34.8454 67.7744 34.8454C71.5675 34.7083 73.9922 31.743 74.5294 27.4409L76.2956 12.9577H77.56C78.8075 12.9577 80.262 11.7237 80.5221 9.66693L80.6437 8.92989ZM101.636 8.5871C96.9765 8.5871 92.5768 11.9808 91.2262 17.3113C89.8748 22.6418 91.9188 28.9492 98.7774 28.9492C105.619 28.9492 109.568 22.3847 109.568 16.917C109.568 11.4837 105.844 8.5871 101.636 8.5871ZM103.523 18.4939C103.281 20.9107 102.207 24.5786 99.2629 24.5786C96.3008 24.5786 96.7164 20.2937 97.0112 18.254C97.3228 16.0772 98.5526 12.9749 101.202 12.9749C103.576 12.9749 103.8 15.7687 103.523 18.4939ZM132.587 14.7061C132.587 14.7061 130.249 21.9734 130.058 22.5732C129.989 21.9562 128.274 8.91275 128.274 8.91275C124.291 8.91275 122.16 11.7237 121.034 14.6888C121.034 14.6888 118.194 21.9734 117.951 22.5904C117.934 22.0248 117.518 14.7746 117.518 14.7746C117.276 11.1409 113.916 8.92989 111.196 8.92989L114.47 28.6922C118.644 28.675 120.896 25.8812 122.073 22.916C122.073 22.916 124.585 16.4886 124.671 16.1972C124.706 16.4714 126.473 28.6922 126.473 28.6922C130.664 28.6922 132.916 26.0697 134.128 23.2074L140 8.92989C135.878 8.92989 133.696 11.7237 132.587 14.7061ZM84.4539 0.119979L81.0593 27.2181L80.3659 30.5604C80.4528 30.5604 80.5567 30.5775 80.6437 30.5775C84.2977 30.5261 86.8958 27.3553 87.3806 23.3616L89.3384 7.81579C89.9272 3.06804 87.0689 0.119979 84.4539 0.119979Z" fill="#1A1930"></path>
  </symbol>
  <symbol fill="none" xmlns="http://www.w3.org/2000/svg" viewBox="0 0 25 25" id="instagram">
    <path d="M18.0612 5.68742C17.814 5.68742 17.5723 5.76073 17.3667 5.89808C17.1612 6.03543 17.001 6.23066 16.9063 6.45906C16.8117 6.68747 16.787 6.93881 16.8352 7.18128C16.8834 7.42376 17.0025 7.64649 17.1773 7.8213C17.3521 7.99612 17.5749 8.11517 17.8173 8.1634C18.0598 8.21163 18.3111 8.18688 18.5396 8.09227C18.768 7.99766 18.9632 7.83744 19.1005 7.63188C19.2379 7.42632 19.3112 7.18465 19.3112 6.93742C19.3112 6.6059 19.1795 6.28796 18.9451 6.05354C18.7107 5.81912 18.3927 5.68742 18.0612 5.68742ZM22.8529 8.20825C22.8326 7.34398 22.6707 6.48888 22.3737 5.677C22.1088 4.98235 21.6966 4.35333 21.1654 3.83325C20.6496 3.29932 20.0191 2.88969 19.3216 2.63534C18.5119 2.32925 17.6558 2.16368 16.7904 2.14575C15.6862 2.08325 15.332 2.08325 12.4987 2.08325C9.66537 2.08325 9.3112 2.08325 8.20703 2.14575C7.34157 2.16368 6.48551 2.32925 5.67578 2.63534C4.97961 2.89226 4.34967 3.30154 3.83203 3.83325C3.2981 4.34906 2.88847 4.97954 2.63411 5.677C2.32803 6.48673 2.16246 7.34279 2.14453 8.20825C2.08203 9.31242 2.08203 9.66659 2.08203 12.4999C2.08203 15.3333 2.08203 15.6874 2.14453 16.7916C2.16246 17.6571 2.32803 18.5131 2.63411 19.3228C2.88847 20.0203 3.2981 20.6508 3.83203 21.1666C4.34967 21.6983 4.97961 22.1076 5.67578 22.3645C6.48551 22.6706 7.34157 22.8362 8.20703 22.8541C9.3112 22.9166 9.66537 22.9166 12.4987 22.9166C15.332 22.9166 15.6862 22.9166 16.7904 22.8541C17.6558 22.8362 18.5119 22.6706 19.3216 22.3645C20.0191 22.1102 20.6496 21.7005 21.1654 21.1666C21.699 20.6484 22.1115 20.0189 22.3737 19.3228C22.6707 18.511 22.8326 17.6559 22.8529 16.7916C22.8529 15.6874 22.9154 15.3333 22.9154 12.4999C22.9154 9.66659 22.9154 9.31242 22.8529 8.20825ZM20.9779 16.6666C20.9703 17.3278 20.8505 17.9829 20.6237 18.6041C20.4574 19.0574 20.1902 19.467 19.8424 19.802C19.5046 20.1463 19.0958 20.4129 18.6445 20.5833C18.0234 20.8101 17.3683 20.9298 16.707 20.9374C15.6654 20.9895 15.2799 20.9999 12.5404 20.9999C9.80078 20.9999 9.41537 20.9999 8.3737 20.9374C7.68713 20.9503 7.00348 20.8446 6.35286 20.6249C5.92139 20.4458 5.53136 20.1799 5.20703 19.8437C4.86129 19.509 4.59749 19.0991 4.4362 18.6458C4.18188 18.0157 4.04083 17.3457 4.01953 16.6666C4.01953 15.6249 3.95703 15.2395 3.95703 12.4999C3.95703 9.76034 3.95703 9.37492 4.01953 8.33325C4.0242 7.65727 4.1476 6.98736 4.38411 6.35409C4.5675 5.91441 4.84897 5.52248 5.20703 5.20825C5.5235 4.85009 5.91462 4.56564 6.35286 4.37492C6.98781 4.1458 7.65703 4.02604 8.33203 4.02075C9.3737 4.02075 9.75912 3.95825 12.4987 3.95825C15.2383 3.95825 15.6237 3.95825 16.6654 4.02075C17.3266 4.02834 17.9817 4.14809 18.6029 4.37492C19.0762 4.5506 19.5011 4.83622 19.8424 5.20825C20.1838 5.52823 20.4505 5.91943 20.6237 6.35409C20.8552 6.98839 20.975 7.65802 20.9779 8.33325C21.0299 9.37492 21.0404 9.76034 21.0404 12.4999C21.0404 15.2395 21.0299 15.6249 20.9779 16.6666ZM12.4987 7.15617C11.4423 7.15823 10.4101 7.47338 9.53271 8.06181C8.65531 8.65024 7.97201 9.48554 7.56915 10.4622C7.16629 11.4388 7.06195 12.5129 7.26932 13.5488C7.47668 14.5847 7.98644 15.5359 8.73419 16.2822C9.48194 17.0285 10.4341 17.5364 11.4704 17.7417C12.5067 17.9471 13.5806 17.8407 14.5565 17.4359C15.5323 17.0311 16.3663 16.3462 16.953 15.4677C17.5397 14.5891 17.8529 13.5564 17.8529 12.4999C17.8542 11.7969 17.7166 11.1006 17.4479 10.4509C17.1792 9.80128 16.7847 9.21118 16.2871 8.71456C15.7895 8.21793 15.1986 7.82458 14.5485 7.55714C13.8983 7.28969 13.2017 7.15342 12.4987 7.15617ZM12.4987 15.9687C11.8126 15.9687 11.142 15.7652 10.5716 15.3841C10.0011 15.0029 9.55653 14.4612 9.29399 13.8274C9.03145 13.1935 8.96276 12.4961 9.0966 11.8232C9.23044 11.1503 9.56081 10.5323 10.0459 10.0471C10.531 9.56203 11.1491 9.23166 11.822 9.09782C12.4949 8.96398 13.1923 9.03267 13.8261 9.29521C14.46 9.55775 15.0017 10.0024 15.3829 10.5728C15.764 11.1432 15.9674 11.8139 15.9674 12.4999C15.9674 12.9554 15.8777 13.4065 15.7034 13.8274C15.5291 14.2482 15.2736 14.6306 14.9515 14.9527C14.6294 15.2748 14.247 15.5303 13.8261 15.7046C13.4053 15.8789 12.9542 15.9687 12.4987 15.9687Z" fill="#1A1930"></path>
  </symbol>
  <symbol fill="none" xmlns="http://www.w3.org/2000/svg" viewBox="0 0 25 25" id="twitter">
    <path d="M23.9481 4.11484C23.9483 3.93085 23.8996 3.75011 23.8072 3.59103C23.7147 3.43195 23.5817 3.30022 23.4218 3.20925C23.2619 3.11827 23.0807 3.07131 22.8967 3.07313C22.7127 3.07496 22.5325 3.12552 22.3744 3.21965C21.7647 3.58255 21.1083 3.86047 20.4234 4.04569C19.4452 3.20635 18.1977 2.74705 16.9088 2.75174C15.4948 2.75337 14.1368 3.30445 13.1215 4.2886C12.1063 5.27275 11.5132 6.61296 11.4675 8.02621C8.68001 7.58169 6.15361 6.12675 4.37009 3.93885C4.26262 3.80847 4.12538 3.70584 3.96994 3.63963C3.8145 3.57341 3.64541 3.54554 3.47694 3.55838C3.30856 3.57224 3.1461 3.62691 3.0036 3.71766C2.8611 3.80841 2.74284 3.9325 2.65906 4.07921C2.2294 4.82902 1.98264 5.66959 1.9388 6.53266C1.89497 7.39573 2.0553 8.25697 2.40678 9.04645L2.40475 9.04848C2.24678 9.14578 2.11641 9.28198 2.02611 9.44405C1.93581 9.60613 1.88861 9.78866 1.889 9.97419C1.88709 10.1272 1.89627 10.2802 1.91647 10.432C2.02286 11.7426 2.60374 12.9695 3.55018 13.8825C3.48597 14.0048 3.44679 14.1387 3.43491 14.2763C3.42303 14.4139 3.4387 14.5526 3.481 14.6841C3.89362 15.9696 4.77111 17.055 5.94174 17.7277C4.75241 18.1876 3.46822 18.3479 2.20231 18.1946C1.96801 18.1652 1.73068 18.2163 1.52924 18.3395C1.3278 18.4627 1.17422 18.6508 1.09368 18.8727C1.01315 19.0947 1.01045 19.3375 1.08602 19.5612C1.1616 19.7849 1.31096 19.9763 1.50961 20.104C3.68679 21.5062 6.22177 22.2518 8.81145 22.2514C11.7482 22.2845 14.6135 21.346 16.9617 19.5821C19.3099 17.8182 21.0093 15.3277 21.7956 12.498C22.1634 11.2653 22.3512 9.98595 22.3531 8.69959C22.3531 8.63143 22.3531 8.56125 22.3521 8.49107C22.8959 7.90453 23.3173 7.21533 23.5913 6.46387C23.8654 5.7124 23.9867 4.91379 23.9481 4.11484ZM20.5037 7.46058C20.3317 7.66406 20.2446 7.926 20.2606 8.19199C20.2708 8.36387 20.2697 8.53678 20.2697 8.69959C20.2676 9.78661 20.1083 10.8676 19.7967 11.909C19.1545 14.3167 17.7229 16.4393 15.7312 17.9367C13.7394 19.4342 11.3028 20.2199 8.81145 20.1681C7.91653 20.1684 7.0247 20.0632 6.15439 19.8548C7.26419 19.4971 8.30188 18.9457 9.21937 18.2262C9.38835 18.0931 9.51203 17.911 9.57342 17.7049C9.63481 17.4988 9.63091 17.2787 9.56226 17.0749C9.49361 16.871 9.36356 16.6934 9.18997 16.5665C9.01638 16.4395 8.80775 16.3693 8.5927 16.3656C7.7269 16.3521 6.90013 16.0031 6.28659 15.3921C6.44223 15.3626 6.59686 15.326 6.75046 15.2822C6.97547 15.2182 7.17238 15.0803 7.30948 14.8907C7.44658 14.7011 7.5159 14.471 7.50627 14.2372C7.49663 14.0035 7.40862 13.7797 7.25638 13.6021C7.10415 13.4245 6.89656 13.3032 6.66704 13.2579C6.16448 13.1587 5.69157 12.9448 5.28508 12.6331C4.87859 12.3213 4.54947 11.9201 4.32329 11.4604C4.51155 11.4861 4.70101 11.5021 4.89092 11.5082C5.11653 11.5116 5.33737 11.4432 5.52152 11.3128C5.70567 11.1824 5.84357 10.9969 5.91529 10.7829C5.98402 10.567 5.98049 10.3347 5.90522 10.121C5.82996 9.9073 5.68707 9.72398 5.49822 9.59884C5.04004 9.2936 4.66472 8.8795 4.40588 8.39359C4.14704 7.90769 4.01276 7.36517 4.01506 6.81463C4.01506 6.74546 4.0171 6.67629 4.02117 6.60813C6.35582 8.78548 9.384 10.069 12.5722 10.2326C12.7331 10.2389 12.8934 10.2086 13.0409 10.144C13.1884 10.0793 13.3193 9.98193 13.4237 9.85927C13.527 9.73542 13.6001 9.58927 13.6374 9.43235C13.6746 9.27542 13.6749 9.112 13.6382 8.95494C13.5787 8.70636 13.5483 8.45167 13.5477 8.19606C13.5487 7.30495 13.9031 6.45061 14.5332 5.8205C15.1633 5.19039 16.0176 4.83599 16.9087 4.83505C17.3672 4.83382 17.821 4.92765 18.2413 5.11062C18.6617 5.29358 19.0396 5.56171 19.3512 5.89808C19.4713 6.02733 19.6225 6.1237 19.7904 6.17801C19.9583 6.23232 20.1373 6.24278 20.3104 6.20838C20.7383 6.12511 21.1601 6.01295 21.5728 5.87269C21.2913 6.44871 20.9315 6.98305 20.5037 7.46058Z" fill="#1A1930"></path>
  </symbol>
  <symbol fill="none" xmlns="http://www.w3.org/2000/svg" viewBox="0 0 19 17" id="star">
    <path d="M18.2483 6.46119C18.1931 6.30115 18.0926 6.16057 17.959 6.05651C17.8254 5.95245 17.6645 5.88938 17.4958 5.87494L12.5171 5.14869L10.2858 0.624938C10.2142 0.477008 10.1023 0.352238 9.963 0.264948C9.8238 0.177648 9.6627 0.131348 9.4983 0.131348C9.334 0.131348 9.1729 0.177648 9.0336 0.264948C8.89435 0.352238 8.78248 0.477008 8.71083 0.624938L6.47958 5.13994L1.50083 5.87494C1.33889 5.89796 1.18664 5.96591 1.06136 6.07108C0.936091 6.17625 0.842802 6.31443 0.792082 6.46994C0.745662 6.62191 0.741491 6.78365 0.780031 6.9378C0.818571 7.09195 0.898361 7.2327 1.01083 7.34494L4.62458 10.8449L3.74958 15.8149C3.71426 15.9798 3.72732 16.1514 3.78719 16.309C3.84707 16.4666 3.95121 16.6036 4.0871 16.7034C4.22298 16.8032 4.38481 16.8617 4.55312 16.8717C4.72143 16.8817 4.88906 16.8429 5.03583 16.7599L9.4983 14.4237L13.9608 16.7599C14.0836 16.8292 14.2223 16.8654 14.3633 16.8649C14.5487 16.8656 14.7294 16.8074 14.8796 16.6987C15.0153 16.6014 15.1204 16.4674 15.1824 16.3123C15.2445 16.1573 15.2608 15.9877 15.2296 15.8237L14.3546 10.8537L17.9683 7.35369C18.0947 7.24666 18.188 7.10598 18.2376 6.948C18.2872 6.79001 18.2909 6.62121 18.2483 6.46119V6.46119ZM12.8671 9.9612C12.7658 10.0595 12.6898 10.1809 12.6456 10.315C12.6015 10.4491 12.5904 10.5919 12.6133 10.7312L13.2433 14.4062L9.9533 12.6562C9.8255 12.5929 9.6847 12.56 9.5421 12.56C9.3994 12.56 9.2587 12.5929 9.1308 12.6562L5.84083 14.4062L6.47083 10.7312C6.49379 10.5919 6.4827 10.4491 6.43852 10.315C6.39433 10.1809 6.31836 10.0595 6.21708 9.9612L3.59208 7.33619L7.27583 6.80244C7.41758 6.78273 7.55233 6.72854 7.66827 6.64464C7.78421 6.56074 7.8778 6.44968 7.94083 6.32119L9.4983 2.98744L11.1433 6.32994C11.2064 6.45843 11.3 6.56949 11.4159 6.65339C11.5318 6.73729 11.6666 6.79148 11.8083 6.81119L15.4921 7.34494L12.8671 9.9612Z" fill="#1A1930"></path>
  </symbol>
  <symbol fill="none" xmlns="http://www.w3.org/2000/svg" viewBox="0 0 21 21" id="timer">
    <path d="M16.6172 18.3767H15.7422V16.9181C15.7395 16.4174 15.6508 15.9208 15.4801 15.4501C15.4705 15.4244 15.4605 15.4006 15.4487 15.3761C15.3069 14.9897 15.1112 14.6254 14.8672 14.2939L13.6423 12.6602C13.3024 12.205 13.1183 11.6525 13.1172 11.0845V10.2009C13.1192 9.50519 13.3954 8.83834 13.8858 8.34493L14.4609 7.76985C15.129 7.09807 15.5583 6.22556 15.6826 5.28627C15.6831 5.2741 15.6896 5.26395 15.6896 5.25167L15.6872 5.23965C15.7176 5.05334 15.736 4.86527 15.7422 4.6766V2.62671H16.6172C16.8493 2.62671 17.0718 2.53452 17.2359 2.37043C17.4 2.20633 17.4922 1.98377 17.4922 1.75171C17.4922 1.51964 17.4 1.29708 17.2359 1.13299C17.0718 0.968896 16.8493 0.876709 16.6172 0.876709H4.3672C4.13513 0.876709 3.91257 0.968896 3.74848 1.13299C3.58438 1.29708 3.4922 1.51964 3.4922 1.75171C3.4922 1.98377 3.58438 2.20633 3.74848 2.37043C3.91257 2.53452 4.13513 2.62671 4.3672 2.62671H5.2422V4.6766C5.24841 4.86527 5.26679 5.05334 5.29721 5.23965L5.29474 5.25171C5.29474 5.26396 5.30125 5.27414 5.30174 5.28632C5.42613 6.2256 5.85534 7.09811 6.5235 7.7699L7.09858 8.34497C7.58901 8.83837 7.86518 9.50521 7.86719 10.2009V11.0845C7.86605 11.6524 7.68209 12.2049 7.34253 12.6601L6.11676 14.2939C5.87285 14.6255 5.67713 14.99 5.53543 15.3764C5.5238 15.4007 5.5138 15.4242 5.50435 15.4497C5.3336 15.9205 5.24493 16.4172 5.24219 16.9181V18.3767H4.36719C4.13512 18.3767 3.91256 18.4689 3.74847 18.633C3.58437 18.7971 3.49219 19.0196 3.49219 19.2517C3.49219 19.4838 3.58437 19.7063 3.74847 19.8704C3.91256 20.0345 4.13512 20.1267 4.36719 20.1267H16.6172C16.8493 20.1267 17.0718 20.0345 17.2359 19.8704C17.4 19.7063 17.4922 19.4838 17.4922 19.2517C17.4922 19.0196 17.4 18.7971 17.2359 18.633C17.0718 18.4689 16.8493 18.3767 16.6172 18.3767ZM6.99219 4.37671V2.62671H13.9922V4.37671H6.99219ZM7.7608 6.5326C7.63751 6.40873 7.52703 6.27275 7.43103 6.12671H13.5533C13.4573 6.27275 13.3469 6.40873 13.2236 6.5326L12.6485 7.10767C11.966 7.78619 11.5283 8.67232 11.4044 9.62671H9.57998C9.45605 8.67229 9.01841 7.78613 8.33587 7.10758L7.7608 6.5326ZM8.74262 13.7095C9.24891 13.0311 9.54912 12.2212 9.60736 11.3767H11.377C11.4352 12.2213 11.7356 13.0312 12.2422 13.7095L13.1173 14.8767H7.86686L8.74262 13.7095ZM13.9922 18.3767H6.99219V16.9181C6.99462 16.8206 7.00257 16.7233 7.016 16.6267H13.9684C13.9818 16.7233 13.9898 16.8206 13.9922 16.9181V18.3767Z" fill="#1A1930"></path>
  </symbol>
  <symbol fill="none" xmlns="http://www.w3.org/2000/svg" viewBox="0 0 21 21" id="car">
    <path d="M5.7925 11.445C5.68392 11.4843 5.5853 11.547 5.50365 11.6286C5.422 11.7103 5.3593 11.8089 5.32 11.9175C5.25635 12.0765 5.24077 12.2507 5.27519 12.4185C5.30961 12.5862 5.39251 12.7402 5.51362 12.8614C5.63473 12.9825 5.78873 13.0654 5.95651 13.0998C6.12429 13.1342 6.29849 13.1186 6.4575 13.055C6.56354 13.0107 6.6612 12.9485 6.74625 12.8712C6.82354 12.7862 6.88569 12.6885 6.93 12.5825C6.97898 12.4786 7.00296 12.3648 7 12.25C6.99678 12.0183 6.90614 11.7964 6.74625 11.6287C6.6232 11.5073 6.46695 11.4251 6.29721 11.3924C6.12747 11.3597 5.95185 11.378 5.7925 11.445ZM17.29 7.94497L16.1 4.41872C15.9185 3.9053 15.5818 3.46104 15.1365 3.14749C14.6913 2.83394 14.1596 2.66662 13.615 2.66872H7.385C6.84044 2.66662 6.3087 2.83394 5.86346 3.14749C5.41822 3.46104 5.08152 3.9053 4.9 4.41872L3.71 7.97122C3.15029 8.11779 2.65468 8.44518 2.30023 8.90248C1.94577 9.35979 1.75234 9.92139 1.75 10.5V14C1.75152 14.5415 1.92052 15.0694 2.23382 15.5112C2.54712 15.9529 2.98939 16.2869 3.5 16.4675V17.5C3.5 17.732 3.59219 17.9546 3.75628 18.1187C3.92038 18.2828 4.14294 18.375 4.375 18.375C4.60706 18.375 4.82962 18.2828 4.99372 18.1187C5.15781 17.9546 5.25 17.732 5.25 17.5V16.625H15.75V17.5C15.75 17.732 15.8422 17.9546 16.0063 18.1187C16.1704 18.2828 16.3929 18.375 16.625 18.375C16.8571 18.375 17.0796 18.2828 17.2437 18.1187C17.4078 17.9546 17.5 17.732 17.5 17.5V16.4675C18.0106 16.2869 18.4529 15.9529 18.7662 15.5112C19.0795 15.0694 19.2485 14.5415 19.25 14V10.5C19.2477 9.92139 19.0542 9.35979 18.6998 8.90248C18.3453 8.44518 17.8497 8.11779 17.29 7.97122V7.94497ZM6.55375 4.96997C6.61245 4.79618 6.72429 4.64523 6.87345 4.53846C7.02261 4.43169 7.20156 4.3745 7.385 4.37497H13.615C13.8058 4.36501 13.9946 4.41778 14.1526 4.52522C14.3106 4.63266 14.4291 4.78886 14.49 4.96997L15.4088 7.87497H5.59125L6.55375 4.96997ZM17.5 14C17.5 14.232 17.4078 14.4546 17.2437 14.6187C17.0796 14.7828 16.8571 14.875 16.625 14.875H4.375C4.14294 14.875 3.92038 14.7828 3.75628 14.6187C3.59219 14.4546 3.5 14.232 3.5 14V10.5C3.5 10.2679 3.59219 10.0453 3.75628 9.88125C3.92038 9.71716 4.14294 9.62497 4.375 9.62497H16.625C16.8571 9.62497 17.0796 9.71716 17.2437 9.88125C17.4078 10.0453 17.5 10.2679 17.5 10.5V14ZM14.5425 11.445C14.4339 11.4843 14.3353 11.547 14.2536 11.6286C14.172 11.7103 14.1093 11.8089 14.07 11.9175C14.0064 12.0765 13.9908 12.2507 14.0252 12.4185C14.0596 12.5862 14.1425 12.7402 14.2636 12.8614C14.3847 12.9825 14.5387 13.0654 14.7065 13.0998C14.8743 13.1342 15.0485 13.1186 15.2075 13.055C15.3161 13.0157 15.4147 12.953 15.4964 12.8713C15.578 12.7897 15.6407 12.6911 15.68 12.5825C15.729 12.4786 15.753 12.3648 15.75 12.25C15.7468 12.0183 15.6561 11.7964 15.4962 11.6287C15.3732 11.5073 15.217 11.4251 15.0472 11.3924C14.8775 11.3597 14.7018 11.378 14.5425 11.445ZM11.375 11.375H9.625C9.39294 11.375 9.17038 11.4672 9.00628 11.6313C8.84219 11.7953 8.75 12.0179 8.75 12.25C8.75 12.482 8.84219 12.7046 9.00628 12.8687C9.17038 13.0328 9.39294 13.125 9.625 13.125H11.375C11.6071 13.125 11.8296 13.0328 11.9937 12.8687C12.1578 12.7046 12.25 12.482 12.25 12.25C12.25 12.0179 12.1578 11.7953 11.9937 11.6313C11.8296 11.4672 11.6071 11.375 11.375 11.375Z" fill="#1A1930"></path>
  </symbol>
  <symbol fill="none" xmlns="http://www.w3.org/2000/svg" viewBox="0 0 21 21" id="light">
    <path d="M17.385 7.52502C17.3198 7.37515 17.214 7.24654 17.0794 7.15375C16.9449 7.06096 16.7871 7.00771 16.6238 7.00002H12.6163L13.7275 2.85252C13.7629 2.72274 13.7679 2.58654 13.7421 2.45452C13.7163 2.32249 13.6604 2.19819 13.5788 2.09127C13.4973 1.98539 13.3926 1.89958 13.2728 1.84042C13.153 1.78127 13.0212 1.75035 12.8875 1.75002H6.76254C6.565 1.74326 6.37099 1.80357 6.2121 1.92115C6.05322 2.03873 5.93882 2.20663 5.88754 2.39752L3.54254 11.1475C3.50715 11.2773 3.50216 11.4135 3.52796 11.5455C3.55376 11.6776 3.60965 11.8019 3.69129 11.9088C3.77371 12.0158 3.87979 12.1024 4.00124 12.1616C4.12268 12.2208 4.25619 12.251 4.39129 12.25H7.77754L6.19379 18.1475C6.1419 18.3377 6.15575 18.5398 6.23308 18.7211C6.31042 18.9025 6.44671 19.0523 6.61988 19.1465C6.79305 19.2407 6.99295 19.2737 7.18718 19.24C7.38142 19.2064 7.55861 19.1082 7.69004 18.9613L17.2275 8.46127C17.3411 8.33692 17.4164 8.18244 17.4443 8.01637C17.4723 7.8503 17.4517 7.67969 17.385 7.52502ZM8.81879 15.12L9.75504 11.62C9.79044 11.4902 9.79543 11.354 9.76963 11.222C9.74383 11.09 9.68794 10.9657 9.60629 10.8588C9.52478 10.7529 9.4201 10.6671 9.30028 10.6079C9.18045 10.5488 9.04867 10.5178 8.91504 10.5175H5.55504L7.42754 3.50002H11.7413L10.63 7.64752C10.5944 7.7797 10.5902 7.9184 10.6179 8.05248C10.6456 8.18655 10.7043 8.31226 10.7894 8.4195C10.8745 8.52673 10.9836 8.6125 11.1079 8.66991C11.2322 8.72731 11.3682 8.75475 11.505 8.75002H14.6288L8.81879 15.12Z" fill="#1A1930"></path>
  </symbol>
  <symbol xmlns="http://www.w3.org/2000/svg" viewBox="0 0 48 48" id="user">
    <path d="M24 23.95q-3.3 0-5.4-2.1-2.1-2.1-2.1-5.4 0-3.3 2.1-5.4 2.1-2.1 5.4-2.1 3.3 0 5.4 2.1 2.1 2.1 2.1 5.4 0 3.3-2.1 5.4-2.1 2.1-5.4 2.1ZM8 40v-4.7q0-1.9.95-3.25T11.4 30q3.35-1.5 6.425-2.25Q20.9 27 24 27q3.1 0 6.15.775 3.05.775 6.4 2.225 1.55.7 2.5 2.05.95 1.35.95 3.25V40Zm3-3h26v-1.7q0-.8-.475-1.525-.475-.725-1.175-1.075-3.2-1.55-5.85-2.125Q26.85 30 24 30t-5.55.575q-2.7.575-5.85 2.125-.7.35-1.15 1.075Q11 34.5 11 35.3Zm13-16.05q1.95 0 3.225-1.275Q28.5 18.4 28.5 16.45q0-1.95-1.275-3.225Q25.95 11.95 24 11.95q-1.95 0-3.225 1.275Q19.5 14.5 19.5 16.45q0 1.95 1.275 3.225Q22.05 20.95 24 20.95Zm0-4.5ZM24 37Z"></path>
  </symbol>
  <symbol fill="none" xmlns="http://www.w3.org/2000/svg" viewBox="0 0 21 21" id="reset">
    <path d="M18.375 9.625C17.85 9.625 17.5 9.975 17.5 10.5C17.5 13.0375 16.1875 15.3125 14 16.5375C10.675 18.4625 6.3875 17.325 4.4625 14C2.5375 10.675 3.675 6.3875 7 4.4625C9.8875 2.8 13.3875 3.4125 15.575 5.6875H13.475C12.95 5.6875 12.6 6.0375 12.6 6.5625C12.6 7.0875 12.95 7.4375 13.475 7.4375H17.4125C17.9375 7.4375 18.2875 7.0875 18.2875 6.5625V2.625C18.2875 2.1 17.9375 1.75 17.4125 1.75C16.8875 1.75 16.5375 2.1 16.5375 2.625V4.2C14.875 2.625 12.775 1.75 10.5 1.75C5.6875 1.75 1.75 5.6875 1.75 10.5C1.75 15.3125 5.6875 19.25 10.5 19.25C15.3125 19.25 19.25 15.3125 19.25 10.5C19.25 9.975 18.9 9.625 18.375 9.625Z" fill="#1A1930"></path>
  </symbol>
  <symbol fill="none" xmlns="http://www.w3.org/2000/svg" viewBox="0 0 25 25" id="facebook">
    <path d="M19.6133 9.83341C19.5177 9.69205 19.3889 9.57632 19.2382 9.4964C19.0874 9.41649 18.9193 9.37482 18.7487 9.37508H15.6237V7.29175H17.9154C18.1916 7.29175 18.4566 7.182 18.6519 6.98665C18.8473 6.7913 18.957 6.52635 18.957 6.25008V2.08341C18.957 1.80715 18.8473 1.5422 18.6519 1.34685C18.4566 1.15149 18.1916 1.04175 17.9154 1.04175H14.582C12.9797 1.04175 11.443 1.67828 10.3099 2.81131C9.1769 3.94434 8.54036 5.48107 8.54036 7.08341V9.37508H6.2487C5.97243 9.37508 5.70748 9.48483 5.51213 9.68018C5.31678 9.87553 5.20703 10.1405 5.20703 10.4167V14.5834C5.20703 14.8597 5.31678 15.1246 5.51213 15.32C5.70748 15.5153 5.97243 15.6251 6.2487 15.6251H8.54036V22.9167C8.54036 23.193 8.65011 23.458 8.84546 23.6533C9.04081 23.8487 9.30576 23.9584 9.58203 23.9584H14.582C14.8583 23.9584 15.1233 23.8487 15.3186 23.6533C15.514 23.458 15.6237 23.193 15.6237 22.9167V15.6251H17.082C17.2907 15.6253 17.4945 15.5628 17.6673 15.4458C17.84 15.3288 17.9736 15.1626 18.0508 14.9688L19.7174 10.8022C19.7804 10.6444 19.8038 10.4737 19.7856 10.3049C19.7675 10.136 19.7083 9.97417 19.6133 9.83341ZM16.3737 13.5417H14.582C14.3058 13.5417 14.0408 13.6515 13.8455 13.8468C13.6501 14.0422 13.5404 14.3071 13.5404 14.5834V21.8751H10.6237V14.5834C10.6237 14.3071 10.514 14.0422 10.3186 13.8468C10.1233 13.6515 9.8583 13.5417 9.58203 13.5417H7.29036V11.4584H9.58203C9.8583 11.4584 10.1233 11.3487 10.3186 11.1533C10.514 10.958 10.6237 10.693 10.6237 10.4167V7.08341C10.6264 6.03444 11.0444 5.02922 11.7861 4.28749C12.5278 3.54575 13.5331 3.12783 14.582 3.12508H16.8737V5.20841H16.0404C15.6877 5.15703 15.3282 5.1786 14.9842 5.27177C14.6402 5.36494 14.3189 5.52774 14.0404 5.75008C13.8713 5.92706 13.7399 6.13643 13.6539 6.36559C13.568 6.59474 13.5294 6.83893 13.5404 7.08341V10.4167C13.5404 10.693 13.6501 10.958 13.8455 11.1533C14.0408 11.3487 14.3058 11.4584 14.582 11.4584H17.207L16.3737 13.5417Z" fill="#1A1930"></path>
  </symbol>
  <symbol xmlns="http://www.w3.org/2000/svg" viewBox="0 0 48 48" id="settings">
    <path d="m19.4 44-1-6.3q-.95-.35-2-.95t-1.85-1.25l-5.9 2.7L4 30l5.4-3.95q-.1-.45-.125-1.025Q9.25 24.45 9.25 24q0-.45.025-1.025T9.4 21.95L4 18l4.65-8.2 5.9 2.7q.8-.65 1.85-1.25t2-.9l1-6.35h9.2l1 6.3q.95.35 2.025.925Q32.7 11.8 33.45 12.5l5.9-2.7L44 18l-5.4 3.85q.1.5.125 1.075.025.575.025 1.075t-.025 1.05q-.025.55-.125 1.05L44 30l-4.65 8.2-5.9-2.7q-.8.65-1.825 1.275-1.025.625-2.025.925l-1 6.3ZM24 30.5q2.7 0 4.6-1.9 1.9-1.9 1.9-4.6 0-2.7-1.9-4.6-1.9-1.9-4.6-1.9-2.7 0-4.6 1.9-1.9 1.9-1.9 4.6 0 2.7 1.9 4.6 1.9 1.9 4.6 1.9Zm0-3q-1.45 0-2.475-1.025Q20.5 25.45 20.5 24q0-1.45 1.025-2.475Q22.55 20.5 24 20.5q1.45 0 2.475 1.025Q27.5 22.55 27.5 24q0 1.45-1.025 2.475Q25.45 27.5 24 27.5Zm0-3.5Zm-2.2 17h4.4l.7-5.6q1.65-.4 3.125-1.25T32.7 32.1l5.3 2.3 2-3.6-4.7-3.45q.2-.85.325-1.675.125-.825.125-1.675 0-.85-.1-1.675-.1-.825-.35-1.675L40 17.2l-2-3.6-5.3 2.3q-1.15-1.3-2.6-2.175-1.45-.875-3.2-1.125L26.2 7h-4.4l-.7 5.6q-1.7.35-3.175 1.2-1.475.85-2.625 2.1L10 13.6l-2 3.6 4.7 3.45q-.2.85-.325 1.675-.125.825-.125 1.675 0 .85.125 1.675.125.825.325 1.675L8 30.8l2 3.6 5.3-2.3q1.2 1.2 2.675 2.05Q19.45 35 21.1 35.4Z"></path>
  </symbol>
  <symbol xmlns="http://www.w3.org/2000/svg" viewBox="0 0 48 48" id="board">
    <path d="M6 22.5V6h16.5v16.5ZM6 42V25.5h16.5V42Zm19.5-19.5V6H42v16.5Zm0 19.5V25.5H42V42ZM9 19.5h10.5V9H9Zm19.5 0H39V9H28.5Zm0 19.5H39V28.5H28.5ZM9 39h10.5V28.5H9Zm19.5-19.5Zm0 9Zm-9 0Zm0-9Z"></path>
  </symbol>
</svg>